<?xml version="1.0" encoding="utf-8" standalone="no"?>
<!DOCTYPE svg PUBLIC "-//W3C//DTD SVG 1.1//EN"
  "http://www.w3.org/Graphics/SVG/1.1/DTD/svg11.dtd">
<svg xmlns:xlink="http://www.w3.org/1999/xlink" width="405.557992pt" height="264.711597pt" viewBox="0 0 405.557992 264.711597" xmlns="http://www.w3.org/2000/svg" version="1.1">
 <metadata>
  <rdf:RDF xmlns:dc="http://purl.org/dc/elements/1.1/" xmlns:cc="http://creativecommons.org/ns#" xmlns:rdf="http://www.w3.org/1999/02/22-rdf-syntax-ns#">
   <cc:Work>
    <dc:type rdf:resource="http://purl.org/dc/dcmitype/StillImage"/>
    <dc:date>2023-10-23T16:55:40.031141</dc:date>
    <dc:format>image/svg+xml</dc:format>
    <dc:creator>
     <cc:Agent>
      <dc:title>Matplotlib v3.7.1, https://matplotlib.org/</dc:title>
     </cc:Agent>
    </dc:creator>
   </cc:Work>
  </rdf:RDF>
 </metadata>
 <defs>
  <style type="text/css">*{stroke-linejoin: round; stroke-linecap: butt}</style>
 </defs>
 <g id="figure_1">
  <g id="patch_1">
   <path d="M 0 264.711597 
L 405.557992 264.711597 
L 405.557992 0 
L 0 0 
z
" style="fill: #ffffff"/>
  </g>
  <g id="axes_1">
   <g id="line2d_1">
    <path d="M 64.609196 44.2832 
L 393.722592 44.2832 
" clip-path="url(#p3b30f5740f)" style="fill: none; stroke: #000000; stroke-width: 2; stroke-linecap: square"/>
   </g>
   <g id="line2d_2">
    <path d="M 64.609196 90.637199 
L 393.722592 90.637199 
" clip-path="url(#p3b30f5740f)" style="fill: none; stroke: #000000; stroke-width: 2; stroke-linecap: square"/>
   </g>
   <g id="line2d_3">
    <path d="M 64.609196 136.991198 
L 393.722592 136.991198 
" clip-path="url(#p3b30f5740f)" style="fill: none; stroke: #000000; stroke-width: 2; stroke-linecap: square"/>
   </g>
   <g id="line2d_4">
    <path d="M 64.609196 183.345198 
L 393.722592 183.345198 
" clip-path="url(#p3b30f5740f)" style="fill: none; stroke: #000000; stroke-width: 2; stroke-linecap: square"/>
   </g>
   <g id="line2d_5">
    <path d="M 64.609196 229.699197 
L 393.722592 229.699197 
" clip-path="url(#p3b30f5740f)" style="fill: none; stroke: #000000; stroke-width: 2; stroke-linecap: square"/>
   </g>
   <g id="line2d_6">
    <path d="M 182.348355 229.699197 
L 182.348355 44.2832 
" clip-path="url(#p3b30f5740f)" style="fill: none; stroke: #6fa4ff; stroke-width: 2; stroke-linecap: square"/>
   </g>
   <g id="line2d_7">
    <path d="M 228.702354 229.699197 
L 228.702354 90.637199 
" clip-path="url(#p3b30f5740f)" style="fill: none; stroke: #6fa4ff; stroke-width: 2; stroke-linecap: square"/>
   </g>
   <g id="line2d_8">
    <path d="M 275.056354 229.699197 
L 275.056354 136.991198 
" clip-path="url(#p3b30f5740f)" style="fill: none; stroke: #6fa4ff; stroke-width: 2; stroke-linecap: square"/>
   </g>
   <g id="line2d_9">
    <path d="M 321.410353 229.699197 
L 321.410353 183.345198 
" clip-path="url(#p3b30f5740f)" style="fill: none; stroke: #6fa4ff; stroke-width: 2; stroke-linecap: square"/>
   </g>
   <g id="patch_2">
    <path d="M 74.575306 244.764247 
L 104.705406 244.764247 
L 104.705406 214.634147 
L 74.575306 214.634147 
z
" clip-path="url(#p3b30f5740f)" style="fill: #05bab6; stroke: #05bab6; stroke-width: 1.5; stroke-linejoin: miter"/>
   </g>
   <g id="patch_3">
    <path d="M 74.575306 59.348249 
L 104.705406 59.348249 
L 104.705406 29.21815 
L 74.575306 29.21815 
z
" clip-path="url(#p3b30f5740f)" style="fill: #6fa4ff; stroke: #6fa4ff; stroke-width: 1.5; stroke-linejoin: miter"/>
   </g>
   <g id="patch_4">
    <path d="M 74.575306 105.702249 
L 104.705406 105.702249 
L 104.705406 75.572149 
L 74.575306 75.572149 
z
" clip-path="url(#p3b30f5740f)" style="fill: #6fa4ff; stroke: #6fa4ff; stroke-width: 1.5; stroke-linejoin: miter"/>
   </g>
   <g id="patch_5">
    <path d="M 74.575306 152.056248 
L 104.705406 152.056248 
L 104.705406 121.926148 
L 74.575306 121.926148 
z
" clip-path="url(#p3b30f5740f)" style="fill: #6fa4ff; stroke: #6fa4ff; stroke-width: 1.5; stroke-linejoin: miter"/>
   </g>
   <g id="patch_6">
    <path d="M 74.575306 198.410247 
L 104.705406 198.410247 
L 104.705406 168.280148 
L 74.575306 168.280148 
z
" clip-path="url(#p3b30f5740f)" style="fill: #6fa4ff; stroke: #6fa4ff; stroke-width: 1.5; stroke-linejoin: miter"/>
   </g>
   <g id="patch_7">
    <path d="M 120.929306 244.764247 
L 151.059405 244.764247 
L 151.059405 214.634147 
L 120.929306 214.634147 
z
" clip-path="url(#p3b30f5740f)" style="fill: #6fa4ff; stroke: #6fa4ff; stroke-width: 1.5; stroke-linejoin: miter"/>
   </g>
   <g id="patch_8">
    <path d="M 182.348355 48.802714 
C 183.546944 48.802714 184.696604 48.32651 185.544135 47.478979 
C 186.391665 46.631448 186.86787 45.481789 186.86787 44.2832 
C 186.86787 43.08461 186.391665 41.934951 185.544135 41.08742 
C 184.696604 40.239889 183.546944 39.763685 182.348355 39.763685 
C 181.149766 39.763685 180.000106 40.239889 179.152575 41.08742 
C 178.305045 41.934951 177.82884 43.08461 177.82884 44.2832 
C 177.82884 45.481789 178.305045 46.631448 179.152575 47.478979 
C 180.000106 48.32651 181.149766 48.802714 182.348355 48.802714 
z
" clip-path="url(#p3b30f5740f)" style="fill: #6fa4ff; stroke: #6fa4ff; stroke-width: 1.5; stroke-linejoin: miter"/>
   </g>
   <g id="patch_9">
    <path d="M 182.348355 240.244732 
C 185.145063 240.244732 187.827603 239.133588 189.805174 237.156016 
C 191.782746 235.178445 192.89389 232.495906 192.89389 229.699197 
C 192.89389 226.902489 191.782746 224.219949 189.805174 222.242378 
C 187.827603 220.264806 185.145063 219.153662 182.348355 219.153662 
C 179.551646 219.153662 176.869107 220.264806 174.891536 222.242378 
C 172.913964 224.219949 171.80282 226.902489 171.80282 229.699197 
C 171.80282 232.495906 172.913964 235.178445 174.891536 237.156016 
C 176.869107 239.133588 179.551646 240.244732 182.348355 240.244732 
z
" clip-path="url(#p3b30f5740f)" style="fill: #6fa4ff; stroke: #6fa4ff; stroke-width: 2; stroke-linejoin: miter"/>
   </g>
   <g id="patch_10">
    <path d="M 228.702354 95.156714 
C 229.900944 95.156714 231.050603 94.680509 231.898134 93.832979 
C 232.745665 92.985448 233.221869 91.835788 233.221869 90.637199 
C 233.221869 89.43861 232.745665 88.28895 231.898134 87.441419 
C 231.050603 86.593889 229.900944 86.117684 228.702354 86.117684 
C 227.503765 86.117684 226.354105 86.593889 225.506575 87.441419 
C 224.659044 88.28895 224.182839 89.43861 224.182839 90.637199 
C 224.182839 91.835788 224.659044 92.985448 225.506575 93.832979 
C 226.354105 94.680509 227.503765 95.156714 228.702354 95.156714 
z
" clip-path="url(#p3b30f5740f)" style="fill: #6fa4ff; stroke: #6fa4ff; stroke-width: 1.5; stroke-linejoin: miter"/>
   </g>
   <g id="patch_11">
    <path d="M 228.702354 240.244732 
C 231.499063 240.244732 234.181602 239.133588 236.159173 237.156016 
C 238.136745 235.178445 239.247889 232.495906 239.247889 229.699197 
C 239.247889 226.902489 238.136745 224.219949 236.159173 222.242378 
C 234.181602 220.264806 231.499063 219.153662 228.702354 219.153662 
C 225.905646 219.153662 223.223107 220.264806 221.245535 222.242378 
C 219.267964 224.219949 218.156819 226.902489 218.156819 229.699197 
C 218.156819 232.495906 219.267964 235.178445 221.245535 237.156016 
C 223.223107 239.133588 225.905646 240.244732 228.702354 240.244732 
z
" clip-path="url(#p3b30f5740f)" style="fill: #6fa4ff; stroke: #6fa4ff; stroke-width: 2; stroke-linejoin: miter"/>
   </g>
   <g id="patch_12">
    <path d="M 213.637304 59.348249 
L 243.767404 59.348249 
L 243.767404 29.21815 
L 213.637304 29.21815 
z
" clip-path="url(#p3b30f5740f)" style="fill: #6fa4ff; stroke: #6fa4ff; stroke-width: 1.5; stroke-linejoin: miter"/>
   </g>
   <g id="patch_13">
    <path d="M 275.056354 141.510713 
C 276.254943 141.510713 277.404603 141.034509 278.252133 140.186978 
C 279.099664 139.339447 279.575869 138.189788 279.575869 136.991198 
C 279.575869 135.792609 279.099664 134.642949 278.252133 133.795419 
C 277.404603 132.947888 276.254943 132.471683 275.056354 132.471683 
C 273.857764 132.471683 272.708105 132.947888 271.860574 133.795419 
C 271.013043 134.642949 270.536839 135.792609 270.536839 136.991198 
C 270.536839 138.189788 271.013043 139.339447 271.860574 140.186978 
C 272.708105 141.034509 273.857764 141.510713 275.056354 141.510713 
z
" clip-path="url(#p3b30f5740f)" style="fill: #6fa4ff; stroke: #6fa4ff; stroke-width: 1.5; stroke-linejoin: miter"/>
   </g>
   <g id="patch_14">
    <path d="M 275.056354 240.244732 
C 277.853062 240.244732 280.535601 239.133588 282.513173 237.156016 
C 284.490744 235.178445 285.601889 232.495906 285.601889 229.699197 
C 285.601889 226.902489 284.490744 224.219949 282.513173 222.242378 
C 280.535601 220.264806 277.853062 219.153662 275.056354 219.153662 
C 272.259645 219.153662 269.577106 220.264806 267.599534 222.242378 
C 265.621963 224.219949 264.510819 226.902489 264.510819 229.699197 
C 264.510819 232.495906 265.621963 235.178445 267.599534 237.156016 
C 269.577106 239.133588 272.259645 240.244732 275.056354 240.244732 
z
" clip-path="url(#p3b30f5740f)" style="fill: #6fa4ff; stroke: #6fa4ff; stroke-width: 2; stroke-linejoin: miter"/>
   </g>
   <g id="patch_15">
    <path d="M 259.991304 105.702249 
L 290.121403 105.702249 
L 290.121403 75.572149 
L 259.991304 75.572149 
z
" clip-path="url(#p3b30f5740f)" style="fill: #6fa4ff; stroke: #6fa4ff; stroke-width: 1.5; stroke-linejoin: miter"/>
   </g>
   <g id="patch_16">
    <path d="M 321.410353 187.864713 
C 322.608942 187.864713 323.758602 187.388508 324.606133 186.540977 
C 325.453663 185.693447 325.929868 184.543787 325.929868 183.345198 
C 325.929868 182.146608 325.453663 180.996949 324.606133 180.149418 
C 323.758602 179.301887 322.608942 178.825683 321.410353 178.825683 
C 320.211764 178.825683 319.062104 179.301887 318.214573 180.149418 
C 317.367043 180.996949 316.890838 182.146608 316.890838 183.345198 
C 316.890838 184.543787 317.367043 185.693447 318.214573 186.540977 
C 319.062104 187.388508 320.211764 187.864713 321.410353 187.864713 
z
" clip-path="url(#p3b30f5740f)" style="fill: #6fa4ff; stroke: #6fa4ff; stroke-width: 1.5; stroke-linejoin: miter"/>
   </g>
   <g id="patch_17">
    <path d="M 321.410353 240.244732 
C 324.207062 240.244732 326.889601 239.133588 328.867172 237.156016 
C 330.844744 235.178445 331.955888 232.495906 331.955888 229.699197 
C 331.955888 226.902489 330.844744 224.219949 328.867172 222.242378 
C 326.889601 220.264806 324.207062 219.153662 321.410353 219.153662 
C 318.613645 219.153662 315.931105 220.264806 313.953534 222.242378 
C 311.975962 224.219949 310.864818 226.902489 310.864818 229.699197 
C 310.864818 232.495906 311.975962 235.178445 313.953534 237.156016 
C 315.931105 239.133588 318.613645 240.244732 321.410353 240.244732 
z
" clip-path="url(#p3b30f5740f)" style="fill: #6fa4ff; stroke: #6fa4ff; stroke-width: 2; stroke-linejoin: miter"/>
   </g>
   <g id="patch_18">
    <path d="M 306.345303 152.056248 
L 336.475403 152.056248 
L 336.475403 121.926148 
L 306.345303 121.926148 
z
" clip-path="url(#p3b30f5740f)" style="fill: #6fa4ff; stroke: #6fa4ff; stroke-width: 1.5; stroke-linejoin: miter"/>
   </g>
   <g id="patch_19">
    <path d="M 352.699303 198.410247 
L 382.829402 198.410247 
L 382.829402 168.280148 
L 352.699303 168.280148 
z
" clip-path="url(#p3b30f5740f)" style="fill: #6fa4ff; stroke: #6fa4ff; stroke-width: 1.5; stroke-linejoin: miter"/>
   </g>
   <g id="text_1">
    <g clip-path="url(#p3b30f5740f)">
     <!-- ${q}_{0}$ -->
     <g transform="translate(37.300897 48.734176) scale(0.1625 -0.1625)">
      <defs>
       <path id="DejaVuSans-Oblique-71" d="M 2669 525 
Q 2438 222 2123 65 
Q 1809 -91 1428 -91 
Q 897 -91 595 267 
Q 294 625 294 1253 
Q 294 1759 480 2231 
Q 666 2703 1013 3078 
Q 1238 3322 1530 3453 
Q 1822 3584 2144 3584 
Q 2531 3584 2781 3431 
Q 3031 3278 3144 2969 
L 3244 3494 
L 3822 3494 
L 2888 -1319 
L 2309 -1319 
L 2669 525 
z
M 891 1338 
Q 891 875 1084 633 
Q 1278 391 1644 391 
Q 2188 391 2572 911 
Q 2956 1431 2956 2175 
Q 2956 2625 2757 2864 
Q 2559 3103 2188 3103 
Q 1916 3103 1684 2976 
Q 1453 2850 1281 2606 
Q 1100 2350 995 2006 
Q 891 1663 891 1338 
z
" transform="scale(0.015625)"/>
       <path id="DejaVuSans-30" d="M 2034 4250 
Q 1547 4250 1301 3770 
Q 1056 3291 1056 2328 
Q 1056 1369 1301 889 
Q 1547 409 2034 409 
Q 2525 409 2770 889 
Q 3016 1369 3016 2328 
Q 3016 3291 2770 3770 
Q 2525 4250 2034 4250 
z
M 2034 4750 
Q 2819 4750 3233 4129 
Q 3647 3509 3647 2328 
Q 3647 1150 3233 529 
Q 2819 -91 2034 -91 
Q 1250 -91 836 529 
Q 422 1150 422 2328 
Q 422 3509 836 4129 
Q 1250 4750 2034 4750 
z
" transform="scale(0.015625)"/>
      </defs>
      <use xlink:href="#DejaVuSans-Oblique-71"/>
      <use xlink:href="#DejaVuSans-30" transform="translate(63.476562 -16.40625) scale(0.7)"/>
     </g>
    </g>
   </g>
   <g id="text_2">
    <g clip-path="url(#p3b30f5740f)">
     <!-- ${q}_{1}$ -->
     <g transform="translate(37.300897 95.088175) scale(0.1625 -0.1625)">
      <defs>
       <path id="DejaVuSans-31" d="M 794 531 
L 1825 531 
L 1825 4091 
L 703 3866 
L 703 4441 
L 1819 4666 
L 2450 4666 
L 2450 531 
L 3481 531 
L 3481 0 
L 794 0 
L 794 531 
z
" transform="scale(0.015625)"/>
      </defs>
      <use xlink:href="#DejaVuSans-Oblique-71"/>
      <use xlink:href="#DejaVuSans-31" transform="translate(63.476562 -16.40625) scale(0.7)"/>
     </g>
    </g>
   </g>
   <g id="text_3">
    <g clip-path="url(#p3b30f5740f)">
     <!-- ${q}_{2}$ -->
     <g transform="translate(37.300897 141.442175) scale(0.1625 -0.1625)">
      <defs>
       <path id="DejaVuSans-32" d="M 1228 531 
L 3431 531 
L 3431 0 
L 469 0 
L 469 531 
Q 828 903 1448 1529 
Q 2069 2156 2228 2338 
Q 2531 2678 2651 2914 
Q 2772 3150 2772 3378 
Q 2772 3750 2511 3984 
Q 2250 4219 1831 4219 
Q 1534 4219 1204 4116 
Q 875 4013 500 3803 
L 500 4441 
Q 881 4594 1212 4672 
Q 1544 4750 1819 4750 
Q 2544 4750 2975 4387 
Q 3406 4025 3406 3419 
Q 3406 3131 3298 2873 
Q 3191 2616 2906 2266 
Q 2828 2175 2409 1742 
Q 1991 1309 1228 531 
z
" transform="scale(0.015625)"/>
      </defs>
      <use xlink:href="#DejaVuSans-Oblique-71"/>
      <use xlink:href="#DejaVuSans-32" transform="translate(63.476562 -16.40625) scale(0.7)"/>
     </g>
    </g>
   </g>
   <g id="text_4">
    <g clip-path="url(#p3b30f5740f)">
     <!-- ${q}_{3}$ -->
     <g transform="translate(37.300897 187.796174) scale(0.1625 -0.1625)">
      <defs>
       <path id="DejaVuSans-33" d="M 2597 2516 
Q 3050 2419 3304 2112 
Q 3559 1806 3559 1356 
Q 3559 666 3084 287 
Q 2609 -91 1734 -91 
Q 1441 -91 1130 -33 
Q 819 25 488 141 
L 488 750 
Q 750 597 1062 519 
Q 1375 441 1716 441 
Q 2309 441 2620 675 
Q 2931 909 2931 1356 
Q 2931 1769 2642 2001 
Q 2353 2234 1838 2234 
L 1294 2234 
L 1294 2753 
L 1863 2753 
Q 2328 2753 2575 2939 
Q 2822 3125 2822 3475 
Q 2822 3834 2567 4026 
Q 2313 4219 1838 4219 
Q 1578 4219 1281 4162 
Q 984 4106 628 3988 
L 628 4550 
Q 988 4650 1302 4700 
Q 1616 4750 1894 4750 
Q 2613 4750 3031 4423 
Q 3450 4097 3450 3541 
Q 3450 3153 3228 2886 
Q 3006 2619 2597 2516 
z
" transform="scale(0.015625)"/>
      </defs>
      <use xlink:href="#DejaVuSans-Oblique-71"/>
      <use xlink:href="#DejaVuSans-33" transform="translate(63.476562 -16.40625) scale(0.7)"/>
     </g>
    </g>
   </g>
   <g id="text_5">
    <g clip-path="url(#p3b30f5740f)">
     <!-- ${q}_{4}$ -->
     <g transform="translate(37.300897 234.150174) scale(0.1625 -0.1625)">
      <defs>
       <path id="DejaVuSans-34" d="M 2419 4116 
L 825 1625 
L 2419 1625 
L 2419 4116 
z
M 2253 4666 
L 3047 4666 
L 3047 1625 
L 3713 1625 
L 3713 1100 
L 3047 1100 
L 3047 0 
L 2419 0 
L 2419 1100 
L 313 1100 
L 313 1709 
L 2253 4666 
z
" transform="scale(0.015625)"/>
      </defs>
      <use xlink:href="#DejaVuSans-Oblique-71"/>
      <use xlink:href="#DejaVuSans-34" transform="translate(63.476562 -16.40625) scale(0.7)"/>
     </g>
    </g>
   </g>
   <g id="text_6">
    <g clip-path="url(#p3b30f5740f)">
     <!-- X -->
     <g transform="translate(85.187856 233.286385) scale(0.13 -0.13)">
      <defs>
       <path id="DejaVuSans-58" d="M 403 4666 
L 1081 4666 
L 2241 2931 
L 3406 4666 
L 4084 4666 
L 2584 2425 
L 4184 0 
L 3506 0 
L 2194 1984 
L 872 0 
L 191 0 
L 1856 2491 
L 403 4666 
z
" transform="scale(0.015625)"/>
      </defs>
      <use xlink:href="#DejaVuSans-58"/>
     </g>
    </g>
   </g>
   <g id="text_7">
    <g clip-path="url(#p3b30f5740f)">
     <!-- H -->
     <g transform="translate(84.752153 47.870387) scale(0.13 -0.13)">
      <defs>
       <path id="DejaVuSans-48" d="M 628 4666 
L 1259 4666 
L 1259 2753 
L 3553 2753 
L 3553 4666 
L 4184 4666 
L 4184 0 
L 3553 0 
L 3553 2222 
L 1259 2222 
L 1259 0 
L 628 0 
L 628 4666 
z
" transform="scale(0.015625)"/>
      </defs>
      <use xlink:href="#DejaVuSans-48"/>
     </g>
    </g>
   </g>
   <g id="text_8">
    <g clip-path="url(#p3b30f5740f)">
     <!-- H -->
     <g transform="translate(84.752153 94.224386) scale(0.13 -0.13)">
      <use xlink:href="#DejaVuSans-48"/>
     </g>
    </g>
   </g>
   <g id="text_9">
    <g clip-path="url(#p3b30f5740f)">
     <!-- H -->
     <g transform="translate(84.752153 140.578386) scale(0.13 -0.13)">
      <use xlink:href="#DejaVuSans-48"/>
     </g>
    </g>
   </g>
   <g id="text_10">
    <g clip-path="url(#p3b30f5740f)">
     <!-- H -->
     <g transform="translate(84.752153 186.932385) scale(0.13 -0.13)">
      <use xlink:href="#DejaVuSans-48"/>
     </g>
    </g>
   </g>
   <g id="text_11">
    <g clip-path="url(#p3b30f5740f)">
     <!-- H -->
     <g transform="translate(131.106152 233.286385) scale(0.13 -0.13)">
      <use xlink:href="#DejaVuSans-48"/>
     </g>
    </g>
   </g>
   <g id="line2d_10">
    <path d="M 182.348355 235.725217 
L 182.348355 223.673177 
" clip-path="url(#p3b30f5740f)" style="fill: none; stroke: #ffffff; stroke-width: 2; stroke-linecap: square"/>
   </g>
   <g id="line2d_11">
    <path d="M 176.322335 229.699197 
L 188.374375 229.699197 
" clip-path="url(#p3b30f5740f)" style="fill: none; stroke: #ffffff; stroke-width: 2; stroke-linecap: square"/>
   </g>
   <g id="line2d_12">
    <path d="M 228.702354 235.725217 
L 228.702354 223.673177 
" clip-path="url(#p3b30f5740f)" style="fill: none; stroke: #ffffff; stroke-width: 2; stroke-linecap: square"/>
   </g>
   <g id="line2d_13">
    <path d="M 222.676334 229.699197 
L 234.728374 229.699197 
" clip-path="url(#p3b30f5740f)" style="fill: none; stroke: #ffffff; stroke-width: 2; stroke-linecap: square"/>
   </g>
   <g id="text_12">
    <g clip-path="url(#p3b30f5740f)">
     <!-- H -->
     <g transform="translate(223.814151 47.870387) scale(0.13 -0.13)">
      <use xlink:href="#DejaVuSans-48"/>
     </g>
    </g>
   </g>
   <g id="line2d_14">
    <path d="M 275.056354 235.725217 
L 275.056354 223.673177 
" clip-path="url(#p3b30f5740f)" style="fill: none; stroke: #ffffff; stroke-width: 2; stroke-linecap: square"/>
   </g>
   <g id="line2d_15">
    <path d="M 269.030334 229.699197 
L 281.082374 229.699197 
" clip-path="url(#p3b30f5740f)" style="fill: none; stroke: #ffffff; stroke-width: 2; stroke-linecap: square"/>
   </g>
   <g id="text_13">
    <g clip-path="url(#p3b30f5740f)">
     <!-- H -->
     <g transform="translate(270.168151 94.224386) scale(0.13 -0.13)">
      <use xlink:href="#DejaVuSans-48"/>
     </g>
    </g>
   </g>
   <g id="line2d_16">
    <path d="M 321.410353 235.725217 
L 321.410353 223.673177 
" clip-path="url(#p3b30f5740f)" style="fill: none; stroke: #ffffff; stroke-width: 2; stroke-linecap: square"/>
   </g>
   <g id="line2d_17">
    <path d="M 315.384333 229.699197 
L 327.436373 229.699197 
" clip-path="url(#p3b30f5740f)" style="fill: none; stroke: #ffffff; stroke-width: 2; stroke-linecap: square"/>
   </g>
   <g id="text_14">
    <g clip-path="url(#p3b30f5740f)">
     <!-- H -->
     <g transform="translate(316.52215 140.578386) scale(0.13 -0.13)">
      <use xlink:href="#DejaVuSans-48"/>
     </g>
    </g>
   </g>
   <g id="text_15">
    <g clip-path="url(#p3b30f5740f)">
     <!-- H -->
     <g transform="translate(362.876149 186.932385) scale(0.13 -0.13)">
      <use xlink:href="#DejaVuSans-48"/>
     </g>
    </g>
   </g>
  </g>
 </g>
 <defs>
  <clipPath id="p3b30f5740f">
   <rect x="7.2" y="7.2" width="391.157992" height="250.311597"/>
  </clipPath>
 </defs>
</svg>
